<svg width="178" height="45" viewBox="0 0 178 45" fill="none" xmlns="http://www.w3.org/2000/svg">
<path d="M3.36768 4.73236H9.97485V7.9549H4.60559C3.9225 7.9549 3.36768 7.39991 3.36768 6.71661V4.73236Z" fill="#FF3C00"/>
<path d="M0 1.50983H2.14771C2.83079 1.50983 3.38562 2.06482 3.38562 2.74812V4.73237H0V1.50983Z" fill="#FF3C00"/>
<path d="M34.6766 36.4445C35.2761 36.1342 35.7922 35.7403 36.2307 35.2599C36.6662 34.7795 37.0032 34.2305 37.2389 33.6129C37.4745 32.9952 37.5939 32.3238 37.5939 31.5958C37.5939 30.5783 37.4119 29.7011 37.048 28.967C36.6841 28.23 36.162 27.6273 35.4819 27.1558C34.8018 26.6844 33.9756 26.3353 33.0031 26.1055C32.0307 25.8788 30.9449 25.7654 29.7488 25.7654H9.96899V43.7788H16.5076V37.5396L25.334 37.4859L30.6466 43.8623H38.6826L32.6899 37.1039C33.4148 36.9756 34.08 36.7578 34.6795 36.4505L34.6766 36.4445ZM30.5899 33.216C30.2797 33.4786 29.8532 33.6099 29.3103 33.6099H16.5076V30.4202H29.3103C29.8382 30.4202 30.2588 30.5425 30.578 30.7872C30.8942 31.0318 31.0553 31.4466 31.0553 32.0255C31.0553 32.5536 30.9002 32.9475 30.5929 33.21L30.5899 33.216Z" fill="white"/>
<path d="M55.4883 25.7355C52.6187 25.7355 49.9609 27.2513 48.4993 29.7219L40.1799 43.7758H47.2912L55.1632 29.6891H55.8164L63.7152 43.7758H70.7967L62.4773 29.7219C61.0157 27.2513 58.3579 25.7355 55.4853 25.7355H55.4883Z" fill="white"/>
<path d="M80.1004 31.2139C80.8372 30.8678 81.753 30.6231 82.8507 30.4769C83.9484 30.3307 85.2162 30.2591 86.6509 30.2591C89.0313 30.2591 90.9225 30.456 92.3304 30.8439C93.7384 31.2348 94.669 31.9479 95.1225 32.9833H101.279C101.061 31.6197 100.566 30.459 99.7937 29.4952C99.0211 28.5314 98.0099 27.7467 96.7571 27.138C95.5043 26.5293 94.0247 26.0847 92.3155 25.8012C90.6093 25.5207 88.7181 25.3775 86.648 25.3775C84.378 25.3775 82.3018 25.5446 80.4226 25.8818C78.5434 26.2189 76.9326 26.762 75.5873 27.5169C74.242 28.2718 73.198 29.2416 72.4552 30.4321C71.7095 31.6227 71.3396 33.0609 71.3396 34.7527C71.3396 36.4445 71.7125 37.8828 72.4552 39.0733C73.2009 40.2638 74.245 41.2366 75.5873 41.9885C76.9296 42.7434 78.5434 43.2865 80.4226 43.6236C82.3018 43.9608 84.378 44.1279 86.648 44.1279C88.7181 44.1279 90.6063 43.9877 92.3155 43.7042C94.0218 43.4237 95.5043 42.9732 96.7571 42.3555C98.0099 41.7379 99.0211 40.9471 99.7937 39.9864C100.566 39.0226 101.061 37.8619 101.279 36.4983H95.1225C94.669 37.5336 93.7384 38.2468 92.3304 38.6377C90.9225 39.0285 89.0283 39.2225 86.6509 39.2225C85.2162 39.2225 83.9484 39.1509 82.8507 39.0047C81.75 38.8585 80.8342 38.6198 80.1004 38.2826C79.3637 37.9454 78.8118 37.4889 78.439 36.907C78.0661 36.3252 77.8811 35.6001 77.8811 34.7259C77.8811 33.8516 78.0661 33.1593 78.439 32.5864C78.8118 32.0135 79.3637 31.554 80.1004 31.2109V31.2139Z" fill="white"/>
<path d="M110.816 25.7624H104.277V43.7758H110.816V25.7624Z" fill="white"/>
<path d="M121.277 37.453V25.7355H114.765V43.7758H121.277L137.811 32.0583V43.7758H144.35V25.7355H137.811L121.277 37.453Z" fill="white"/>
<path d="M171.456 36.3908C171.456 36.9727 171.229 37.4441 170.775 37.8082C170.322 38.1722 169.699 38.4586 168.908 38.6675C168.118 38.8764 167.202 39.0226 166.158 39.1031C165.114 39.1837 164.001 39.2255 162.82 39.2255C161.385 39.2255 160.117 39.1539 159.02 39.0077C157.922 38.8615 157 38.6168 156.255 38.2707C155.509 37.9245 154.951 37.468 154.578 36.8951C154.205 36.3222 154.02 35.618 154.02 34.7826C154.02 33.9471 154.205 33.2101 154.578 32.6312C154.951 32.0494 155.509 31.5809 156.255 31.2288C157 30.8737 157.922 30.6261 159.02 30.4799C160.117 30.3337 161.385 30.262 162.82 30.262C164.001 30.262 165.114 30.3128 166.158 30.4112C167.202 30.5097 168.121 30.6708 168.908 30.8886C169.699 31.1065 170.319 31.3899 170.775 31.7331C171.229 32.0792 171.456 32.4969 171.456 32.9863H177.994C177.776 31.6227 177.254 30.462 176.428 29.4982C175.602 28.5344 174.525 27.7497 173.201 27.141C171.873 26.5323 170.331 26.0877 168.571 25.8042C166.808 25.5237 164.893 25.3805 162.823 25.3805C160.553 25.3805 158.477 25.5536 156.598 25.8967C154.718 26.2428 153.102 26.7859 151.747 27.5318C150.393 28.2778 149.346 29.2446 148.6 30.4351C147.855 31.6257 147.485 33.0549 147.485 34.7259C147.485 36.3968 147.858 37.8559 148.6 39.0435C149.346 40.234 150.393 41.2067 151.747 41.9587C153.099 42.7136 154.715 43.2626 156.598 43.6057C158.477 43.9519 160.553 44.122 162.823 44.122C164.112 44.122 165.248 44.0623 166.229 43.9459C167.211 43.8265 168.067 43.6475 168.804 43.3999C169.54 43.1552 170.155 42.8449 170.656 42.4749C171.154 42.1019 171.569 41.6633 171.897 41.153L173.15 43.7699H178V35.2421H171.461V36.3879L171.456 36.3908Z" fill="white"/>
<path d="M47.1272 11.7682L55.9537 11.7145L61.2663 18.091H69.3023L63.3096 11.3326C64.0344 11.2043 64.6996 10.9865 65.2992 10.6791C65.8987 10.3688 66.4148 9.97495 66.8533 9.49456C67.2888 9.01416 67.6259 8.46513 67.8615 7.84748C68.0972 7.22983 68.2165 6.55846 68.2165 5.83041C68.2165 4.81292 68.0345 3.93568 67.6706 3.20165C67.3067 2.46465 66.7847 1.86191 66.1046 1.39047C65.4245 0.91902 64.5982 0.569912 63.6258 0.340157C62.6533 0.113386 61.5675 0 60.3714 0H40.5946V18.0104H47.1332V11.7712L47.1272 11.7682ZM47.1272 4.65478H59.9299C60.4579 4.65478 60.8785 4.77712 61.1977 5.02179C61.5139 5.26646 61.6749 5.68122 61.6749 6.26008C61.6749 6.78822 61.5198 7.18209 61.2126 7.44466C60.9024 7.70724 60.4758 7.83853 59.9329 7.83853H47.1302V4.65776L47.1272 4.65478Z" fill="white"/>
<path d="M16.5076 12.6694L29.7458 12.6156C30.9449 12.6156 32.0307 12.4844 33.0001 12.2218C33.9726 11.9592 34.7989 11.5683 35.479 11.0491C36.1591 10.5329 36.6811 9.88544 37.045 9.11561C37.4089 8.3428 37.5909 7.4387 37.5909 6.40331C37.5909 5.36792 37.4089 4.42801 37.045 3.63729C36.6811 2.84658 36.1591 2.18417 35.479 1.64708C34.7989 1.10999 33.9726 0.710154 33.0001 0.447577C32.0277 0.185 30.9419 0.0537109 29.7458 0.0537109H14.6552C12.069 0.0537109 9.96899 2.15135 9.96899 4.74131H28.9822C30.3811 4.74131 31.0791 5.29631 31.0791 6.40331C31.0791 6.87475 30.9061 7.2537 30.5601 7.53418C30.2141 7.81466 29.6891 7.95788 28.9792 7.95788H9.96899V18.091H16.5076V12.6694Z" fill="white"/>
<path d="M92.0411 14.218H80.3659L91.6921 8.45321V4.68164H71.9183V8.55466H82.8716L74.6864 12.729C72.7624 13.7107 71.5663 15.6621 71.5663 17.8224V18.088H92.0441V14.215L92.0411 14.218Z" fill="white"/>
</svg>
