<svg max-width="151.875vw" max-height="59.626vh"  viewBox="0 0 2187 542" fill="none" xmlns="http://www.w3.org/2000/svg">
<path d="M41.3752 58.1257H122.548V97.7065H56.5838C48.1916 97.7065 41.3752 90.8898 41.3752 82.4972V58.1257Z" fill="#EF4123"/>
<path d="M0 18.5447H26.3859C34.778 18.5447 41.5944 25.3614 41.5944 33.754V58.1254H0V18.5447Z" fill="#EF4123"/>
<path d="M426.024 447.629C433.39 443.817 439.73 438.98 445.117 433.079C450.468 427.179 454.609 420.435 457.504 412.849C460.399 405.263 461.865 397.017 461.865 388.074C461.865 375.577 459.629 364.802 455.158 355.787C450.687 346.734 444.274 339.331 435.919 333.541C427.563 327.75 417.412 323.462 405.465 320.64C393.518 317.855 380.179 316.462 365.483 316.462H122.477V537.712H202.807V461.079L311.246 460.419L376.514 538.738H475.241L401.617 455.728C410.522 454.152 418.695 451.477 426.061 447.702L426.024 447.629ZM375.818 407.975C372.006 411.2 366.766 412.812 360.096 412.812H202.807V373.635H360.096C366.583 373.635 371.75 375.137 375.671 378.142C379.556 381.148 381.535 386.242 381.535 393.352C381.535 399.839 379.629 404.676 375.854 407.901L375.818 407.975Z" fill="#0E1D42"/>
<path d="M681.709 316.096C646.454 316.096 613.802 334.713 595.845 365.058L493.636 537.675H581.003L677.714 364.655H685.74L782.781 537.675H869.781L767.573 365.058C749.616 334.713 716.963 316.096 681.672 316.096H681.709Z" fill="#0E1D42"/>
<path d="M984.086 383.384C993.138 379.133 1004.39 376.128 1017.88 374.332C1031.36 372.536 1046.94 371.657 1064.56 371.657C1093.81 371.657 1117.04 374.076 1134.34 378.84C1151.64 383.641 1163.07 392.4 1168.64 405.117H1244.28C1241.61 388.369 1235.52 374.112 1226.03 362.275C1216.54 350.437 1204.12 340.798 1188.72 333.322C1173.33 325.846 1155.15 320.385 1134.16 316.903C1113.19 313.458 1089.96 311.699 1064.53 311.699C1036.64 311.699 1011.13 313.752 988.044 317.893C964.957 322.034 945.167 328.704 928.639 337.976C912.112 347.249 899.285 359.159 890.16 373.782C880.998 388.405 876.454 406.07 876.454 426.85C876.454 447.63 881.035 465.295 890.16 479.918C899.322 494.54 912.148 506.488 928.639 515.723C945.131 524.996 964.957 531.666 988.044 535.807C1011.13 539.948 1036.64 542.001 1064.53 542.001C1089.96 542.001 1113.16 540.278 1134.16 536.796C1155.12 533.352 1173.33 527.818 1188.72 520.231C1204.12 512.645 1216.54 502.933 1226.03 491.132C1235.52 479.294 1241.61 465.038 1244.28 448.29H1168.64C1163.07 461.007 1151.64 469.766 1134.34 474.567C1117.04 479.368 1093.77 481.75 1064.56 481.75C1046.94 481.75 1031.36 480.87 1017.88 479.075C1004.35 477.279 993.102 474.347 984.086 470.206C975.035 466.064 968.255 460.457 963.674 453.31C959.093 446.164 956.821 437.258 956.821 426.52C956.821 415.782 959.093 407.279 963.674 400.243C968.255 393.206 975.035 387.562 984.086 383.348V383.384Z" fill="#0E1D42"/>
<path d="M1361.44 316.426H1281.11V537.675H1361.44V316.426Z" fill="#0E1D42"/>
<path d="M1489.96 460.016V316.096H1409.96V537.675H1489.96L1693.1 393.754V537.675H1773.43V316.096H1693.1L1489.96 460.016Z" fill="#0E1D42"/>
<path d="M2106.44 446.97C2106.44 454.116 2103.65 459.907 2098.08 464.378C2092.51 468.849 2084.85 472.367 2075.14 474.933C2065.43 477.498 2054.18 479.294 2041.35 480.284C2028.53 481.273 2014.86 481.786 2000.34 481.786C1982.72 481.786 1967.14 480.907 1953.66 479.111C1940.17 477.315 1928.85 474.31 1919.68 470.059C1910.52 465.807 1903.67 460.2 1899.09 453.163C1894.51 446.127 1892.24 437.478 1892.24 427.216C1892.24 416.954 1894.51 407.902 1899.09 400.792C1903.67 393.646 1910.52 387.892 1919.68 383.567C1928.85 379.206 1940.17 376.164 1953.66 374.368C1967.14 372.573 1982.72 371.693 2000.34 371.693C2014.86 371.693 2028.53 372.316 2041.35 373.525C2054.18 374.735 2065.47 376.714 2075.14 379.389C2084.85 382.065 2092.48 385.546 2098.08 389.761C2103.65 394.012 2106.44 399.143 2106.44 405.153H2186.77C2184.09 388.405 2177.68 374.148 2167.53 362.311C2157.38 350.473 2144.15 340.835 2127.88 333.358C2111.57 325.882 2092.62 320.421 2071 316.94C2049.34 313.495 2025.81 311.735 2000.38 311.735C1972.49 311.735 1946.99 313.861 1923.9 318.076C1900.81 322.327 1880.95 328.997 1864.31 338.159C1847.67 347.322 1834.81 359.196 1825.65 373.819C1816.49 388.442 1811.94 405.996 1811.94 426.52C1811.94 447.043 1816.52 464.964 1825.65 479.551C1834.81 494.173 1847.67 506.121 1864.31 515.357C1880.91 524.629 1900.77 531.372 1923.9 535.587C1946.99 539.838 1972.49 541.927 2000.38 541.927C2016.21 541.927 2030.18 541.194 2042.23 539.765C2054.29 538.299 2064.81 536.1 2073.86 533.058C2082.91 530.053 2090.46 526.241 2096.62 521.697C2102.74 517.116 2107.83 511.728 2111.86 505.461L2127.25 537.602H2186.84V432.86H2106.51V446.933L2106.44 446.97Z" fill="#0E1D42"/>
<path d="M578.989 144.543L687.427 143.883L752.696 222.202H851.423L777.799 139.192C786.704 137.616 794.876 134.941 802.243 131.166C809.609 127.355 815.948 122.517 821.336 116.617C826.686 110.716 830.827 103.973 833.722 96.3865C836.617 88.8002 838.083 80.5542 838.083 71.6119C838.083 59.1146 835.848 48.3398 831.377 39.3242C826.906 30.272 820.493 22.8689 812.137 17.0784C803.782 11.2878 793.63 6.99993 781.684 4.17797C769.737 1.39266 756.397 0 741.702 0H498.732V221.212H579.062V144.58L578.989 144.543ZM578.989 57.1722H736.278C742.764 57.1722 747.932 58.6748 751.853 61.68C755.737 64.6852 757.716 69.7794 757.716 76.8893C757.716 83.3761 755.811 88.2138 752.036 91.4389C748.225 94.664 742.984 96.2765 736.314 96.2765H579.025V57.2089L578.989 57.1722Z" fill="#0E1D42"/>
<path d="M202.807 155.611L365.446 154.951C380.179 154.951 393.518 153.338 405.428 150.113C417.375 146.888 427.527 142.087 435.882 135.71C444.238 129.37 450.651 121.417 455.122 111.962C459.593 102.47 461.828 91.3651 461.828 78.6479C461.828 65.9308 459.593 54.3864 455.122 44.6745C450.651 34.9625 444.238 26.8265 435.882 20.2297C427.527 13.6329 417.375 8.72193 405.428 5.49683C393.481 2.27173 380.142 0.65918 365.446 0.65918H180.049C148.276 0.65918 122.477 26.4233 122.477 58.2345H356.065C373.252 58.2345 381.828 65.0512 381.828 78.6479C381.828 84.4385 379.702 89.0929 375.451 92.5379C371.2 95.9829 364.75 97.742 356.028 97.742H122.477V222.202H202.807V155.611Z" fill="#0E1D42"/>
<path d="M1130.79 174.633H987.349L1126.5 103.827V57.5028H883.564V105.073H1018.13L917.573 156.345C893.935 168.402 879.24 192.371 879.24 218.904V222.166H1130.82V174.596L1130.79 174.633Z" fill="#0E1D42"/>
</svg>
