<svg width="70" height="70" viewBox="0 0 70 70" fill="none" xmlns="http://www.w3.org/2000/svg">
<g clip-path="url(#clip0_326_1628)">
<path d="M59.7479 59.7487C73.4163 46.0804 73.4163 23.9196 59.7479 10.2513C46.0796 -3.41709 23.9188 -3.41709 10.2504 10.2513C-3.4179 23.9196 -3.4179 46.0804 10.2504 59.7487C23.9188 73.4171 46.0796 73.4171 59.7479 59.7487Z" fill="#0D1E42"/>
<path d="M10.4609 28.5741L8.1026 26.9388L10.969 26.8071L11.133 26.2389L7.96171 24.0354L7.79078 24.6244L10.1491 26.2643L7.28032 26.396L7.11633 26.9642L9.47461 28.5995L6.60818 28.7312L6.43726 29.3202L10.2969 29.1423L10.4609 28.5741Z" fill="white"/>
<path d="M12.0801 23.9661L13.3621 21.5293L12.8955 21.2845L11.7983 23.3725L10.8791 22.8874L11.8538 21.0327L11.3895 20.7879L10.4148 22.6449L9.49319 22.1622L10.5672 20.1226L10.1007 19.8778L8.76331 22.4209L12.0016 24.1232L12.0825 23.9707L12.0801 23.9661Z" fill="white"/>
<path d="M16.7943 17.1015C16.9813 16.8982 17.1245 16.7134 17.2192 16.5495C17.3163 16.3831 17.3717 16.2261 17.3856 16.0806C17.3994 15.9327 17.3763 15.7965 17.3139 15.6694C17.2539 15.5447 17.1592 15.4223 17.0345 15.3045C16.9097 15.189 16.7712 15.1151 16.6233 15.0804C16.4755 15.0481 16.3184 15.055 16.1568 15.1012C16.1406 15.1058 16.1221 15.1128 16.1036 15.1174C16.1175 14.9765 16.099 14.8425 16.0482 14.7178C15.9904 14.5838 15.9004 14.4591 15.7779 14.3459C15.6555 14.2304 15.5285 14.1496 15.3968 14.0965C15.2652 14.0457 15.1266 14.0318 14.9857 14.0549C14.8471 14.078 14.6993 14.1404 14.5468 14.2397C14.3967 14.3367 14.2373 14.4776 14.071 14.6554L12.8284 15.9882L15.5054 18.4804L16.7943 17.0969V17.1015ZM15.5377 15.2283C15.5193 15.3068 15.4823 15.3853 15.4292 15.4639C15.3737 15.5447 15.3068 15.6302 15.2282 15.7133L14.3644 16.6418L13.6021 15.9327L14.4822 14.988C14.5584 14.9072 14.6369 14.8379 14.7178 14.7825C14.7963 14.7293 14.8748 14.6924 14.9511 14.6716C15.025 14.6531 15.1012 14.6508 15.1728 14.667C15.2444 14.6832 15.3114 14.7201 15.376 14.7802C15.4546 14.8541 15.5077 14.928 15.5308 15.0019C15.5562 15.0758 15.5585 15.1497 15.54 15.2259L15.5377 15.2283ZM15.6486 16.0321C15.7271 15.9489 15.8126 15.8727 15.9027 15.808C15.9904 15.7433 16.0805 15.6971 16.1706 15.6694C16.2584 15.6417 16.3438 15.6302 16.4224 15.6394C16.4986 15.6463 16.5679 15.681 16.6303 15.7387C16.7042 15.8057 16.7527 15.8773 16.7735 15.9512C16.7966 16.0251 16.7966 16.1037 16.7758 16.1822C16.755 16.2653 16.7134 16.3508 16.6534 16.4409C16.591 16.531 16.5125 16.6303 16.4154 16.7319L15.5077 17.7066L14.7455 16.9975L15.6463 16.0298L15.6486 16.0321Z" fill="white"/>
<path d="M19.2289 14.8356L18.3905 13.7108L18.9818 13.2696L20.7303 13.7131L21.2962 13.2904L19.5338 12.8423C19.6401 12.7499 19.7278 12.6575 19.7994 12.5697C19.9172 12.4219 19.9958 12.2741 20.035 12.1286C20.0743 11.9807 20.072 11.8329 20.0304 11.6851C19.9912 11.5396 19.9149 11.3918 19.8041 11.2439C19.6932 11.0961 19.5731 10.9806 19.4437 10.9044C19.3144 10.8259 19.1689 10.7866 19.0141 10.7843C18.8594 10.782 18.6884 10.8189 18.5083 10.8952C18.3304 10.9714 18.1318 11.0892 17.917 11.2485L16.5865 12.2417L18.7739 15.1752L19.2289 14.8356ZM18.0764 13.2881L17.3557 12.3226L18.2357 11.6666C18.3766 11.5604 18.506 11.4818 18.6168 11.4333C18.7277 11.3848 18.8247 11.3594 18.9102 11.3571C18.9933 11.3548 19.0696 11.3733 19.1365 11.4148C19.2058 11.4564 19.2728 11.5188 19.3329 11.5996C19.3929 11.6805 19.4345 11.7636 19.453 11.8398C19.4738 11.9161 19.4691 11.9969 19.4437 12.0754C19.4183 12.1563 19.3652 12.2441 19.289 12.3341C19.2105 12.4265 19.0973 12.5259 18.9564 12.6321L18.0764 13.2881Z" fill="white"/>
<path d="M21.236 9.12817L20.7394 9.40535L22.5271 12.5975L23.0237 12.3203L21.236 9.12817Z" fill="white"/>
<path d="M24.3287 11.6042L24.8577 11.3941L23.8529 8.87409L26.7517 10.6365L27.2645 10.4309L25.9202 7.06323L25.9086 7.0332L25.3797 7.24339L26.3844 9.76105L23.4995 8.00793L23.4857 7.99869L22.9729 8.20426L24.3172 11.5742L24.3287 11.6042Z" fill="white"/>
<path d="M28.4564 9.02887C28.5765 9.25061 28.7243 9.42615 28.8976 9.55319C29.0708 9.68253 29.2694 9.76338 29.4912 9.80033C29.5813 9.81419 29.676 9.82343 29.773 9.82343C29.9139 9.82343 30.0663 9.80726 30.2211 9.77723C30.4474 9.73335 30.6415 9.64096 30.8031 9.50237C30.9625 9.36609 31.0965 9.2021 31.205 9.0127C31.2743 8.88797 31.3367 8.74938 31.3898 8.60618L31.5538 9.43539L32.092 9.32914L31.7247 7.46746L29.9416 7.81855L30.0386 8.31515L31.1381 8.09803C31.1265 8.1373 31.115 8.17656 31.1034 8.21583C31.0526 8.38213 30.9856 8.53689 30.9071 8.67778C30.8285 8.81637 30.7338 8.93879 30.6207 9.0358C30.5098 9.13281 30.3712 9.19979 30.2118 9.22982C30.0224 9.26677 29.8469 9.2737 29.6921 9.25061C29.5374 9.22751 29.3988 9.16976 29.2787 9.08199C29.1586 8.99422 29.0546 8.86718 28.9669 8.70781C28.8814 8.54844 28.8121 8.34748 28.7659 8.10727C28.7197 7.87167 28.7012 7.66379 28.7082 7.48825C28.7174 7.31502 28.7567 7.16257 28.8283 7.03553C28.8999 6.91081 29.0061 6.80687 29.1424 6.72602C29.281 6.64518 29.4612 6.58282 29.6783 6.54124C29.8284 6.51121 29.9832 6.49274 30.1356 6.48119C30.2857 6.47195 30.4266 6.48581 30.5537 6.52045C30.6784 6.5551 30.7893 6.61977 30.8817 6.70985C30.9741 6.79763 31.0364 6.93159 31.0711 7.10252L31.078 7.13254L31.6162 7.02629L31.6092 6.99627C31.5631 6.75836 31.4822 6.55972 31.369 6.40727C31.2559 6.25483 31.115 6.13703 30.944 6.0585C30.7754 5.98228 30.5745 5.9407 30.3504 5.93608C30.1264 5.93146 29.8746 5.95687 29.6021 6.00999C28.9992 6.12779 28.5788 6.37263 28.3455 6.73526C28.1146 7.09559 28.0591 7.59912 28.1839 8.22969C28.2462 8.54151 28.3363 8.80944 28.4564 9.02887Z" fill="white"/>
<path d="M36.9401 9.23904L37.506 9.28293L37.7439 6.16012L38.9519 6.25251L38.9911 5.72819L36.0046 5.50183L35.9653 6.02615L37.1733 6.11854L36.9377 9.24135L36.9401 9.23904Z" fill="white"/>
<path d="M41.5713 10.0521C41.8138 10.1145 42.0379 10.1445 42.2435 10.1445C42.5553 10.1445 42.8278 10.0752 43.0519 9.93202C43.4284 9.69873 43.6963 9.27143 43.8511 8.66627C44.0058 8.06111 43.9735 7.55757 43.7564 7.17184C43.5369 6.78611 43.1189 6.51125 42.5137 6.35649C41.9039 6.20174 41.4027 6.241 41.0262 6.47429C40.6497 6.70758 40.3818 7.13489 40.227 7.74005C40.0723 8.34521 40.1046 8.84874 40.3217 9.23447C40.5412 9.6202 40.9592 9.89507 41.5713 10.0521ZM41.6984 9.53243C41.278 9.42618 40.9939 9.23447 40.8507 8.96423C40.7075 8.69167 40.6913 8.33366 40.8022 7.8948C40.9153 7.45363 41.1024 7.14413 41.3565 6.97089C41.5113 6.86695 41.703 6.81383 41.9224 6.81383C42.061 6.81383 42.2134 6.83462 42.3774 6.87619C42.8001 6.98244 43.0865 7.17646 43.232 7.44671C43.3752 7.71926 43.3914 8.07958 43.2782 8.52075C43.1651 8.96192 42.978 9.27143 42.7216 9.44004C42.4652 9.60865 42.121 9.63868 41.7007 9.53243H41.6984Z" fill="white"/>
<path d="M45.4564 11.2463C45.6111 11.4057 45.8121 11.5466 46.0569 11.662C46.2648 11.7614 46.4773 11.8029 46.6875 11.7914C46.8954 11.7775 47.1032 11.7267 47.2996 11.6366C47.4312 11.5766 47.5629 11.505 47.6922 11.4218L47.3296 12.1841L47.8239 12.4197L48.6392 10.7081L46.9993 9.92741L46.7822 10.3847L47.7939 10.8652C47.7615 10.8906 47.7292 10.9137 47.6945 10.9391C47.5536 11.0407 47.4081 11.1262 47.2603 11.1932C47.1148 11.2578 46.9646 11.2971 46.8168 11.3087C46.669 11.3202 46.5189 11.2902 46.3733 11.2209C46.2001 11.1377 46.0546 11.0384 45.9437 10.9275C45.8329 10.8167 45.7566 10.6873 45.7127 10.5464C45.6689 10.4032 45.6619 10.2392 45.6873 10.0614C45.7127 9.88121 45.7797 9.67795 45.8837 9.45852C45.9876 9.2414 46.0962 9.06355 46.207 8.92728C46.3179 8.79331 46.4403 8.6963 46.5743 8.63624C46.7059 8.5785 46.8538 8.55771 47.0108 8.57619C47.1702 8.59467 47.3527 8.65241 47.5513 8.74711C47.6899 8.8141 47.8262 8.88801 47.9532 8.97116C48.078 9.052 48.1819 9.1467 48.265 9.25295C48.3436 9.35458 48.3944 9.47238 48.4152 9.59942C48.436 9.72415 48.4083 9.86966 48.332 10.0267L48.3182 10.0544L48.8125 10.29L48.8263 10.2623C48.9303 10.0429 48.9834 9.83502 48.9857 9.64561C48.9857 9.45621 48.9418 9.27605 48.8517 9.11437C48.764 8.95268 48.6277 8.80024 48.4498 8.66165C48.2743 8.52537 48.0572 8.39372 47.8054 8.27361C47.2511 8.01029 46.766 7.95255 46.3641 8.105C45.9622 8.25744 45.618 8.627 45.3432 9.20676C45.2069 9.49317 45.1214 9.76341 45.0868 10.0106C45.0522 10.26 45.066 10.4887 45.1284 10.6943C45.1907 10.8998 45.3016 11.0846 45.4587 11.2463H45.4564Z" fill="white"/>
<path d="M51.6949 14.4337L49.7778 13.0617L50.383 12.2163L52.0876 13.4359L52.3948 13.0086L50.6879 11.7867L51.293 10.9413L53.1686 12.2833L53.4734 11.856L51.136 10.1837L49.0248 13.131L49.0063 13.1564L51.3854 14.8587L51.6903 14.4314L51.6949 14.4337Z" fill="white"/>
<path d="M53.1201 16.4594L53.522 16.8613L55.7348 14.6462L56.594 15.5031L56.9659 15.1313L54.8478 13.0155L54.476 13.3874L55.3329 14.2443L53.1201 16.4594Z" fill="white"/>
<path d="M55.5406 19.1595L56.8226 18.261L58.0491 20.0118L56.7671 20.9103L57.0951 21.3746L60.0909 19.2727L59.7629 18.8084L58.481 19.7069L57.2545 17.9561L58.5387 17.0576L58.2107 16.5911L55.215 18.693L55.5406 19.1572V19.1595Z" fill="white"/>
<path d="M59.0332 25.2896L59.5113 25.0679L58.5158 22.9314L59.4582 22.4925L60.3452 24.3934L60.821 24.1717L59.9363 22.2708L60.8787 21.8319L61.8511 23.9223L62.3293 23.7005L61.1143 21.0951L57.7975 22.6403L59.0332 25.292V25.2896Z" fill="white"/>
<path d="M59.6338 27.0729L60.9873 26.7056L61.179 27.417L60.1234 28.8814L60.3082 29.5628L61.3707 28.0868C61.4169 28.2208 61.47 28.3363 61.5255 28.4356C61.6202 28.5996 61.7287 28.7267 61.8488 28.8144C61.9713 28.9022 62.1122 28.9576 62.2623 28.9738C62.4124 28.99 62.5787 28.9738 62.7566 28.9253C62.9344 28.8768 63.0846 28.8052 63.2047 28.7151C63.3248 28.6227 63.4149 28.5026 63.4772 28.3594C63.5373 28.2162 63.5627 28.043 63.5604 27.8466C63.5558 27.6526 63.5188 27.4239 63.4495 27.1676L63.013 25.5646L59.4813 26.5231L59.6315 27.0729H59.6338ZM61.4931 26.567L62.655 26.2506L62.9437 27.3085C62.9899 27.4794 63.0153 27.6272 63.0222 27.7496C63.0268 27.8697 63.0153 27.9714 62.9876 28.0499C62.9598 28.1284 62.9136 28.1908 62.8513 28.2393C62.7866 28.2878 62.7058 28.3271 62.6088 28.3548C62.5117 28.3802 62.4217 28.3894 62.3408 28.3802C62.2623 28.371 62.1884 28.3386 62.1237 28.2855C62.0567 28.2324 61.9944 28.1515 61.9389 28.0453C61.8812 27.939 61.8304 27.7981 61.7842 27.6249L61.4978 26.567H61.4931Z" fill="white"/>
<path d="M10.2878 43.433L10.7821 43.3037L10.0476 40.495L9.5533 40.6243L9.85126 41.7608L6.91785 42.5276L7.05643 43.0635L9.98985 42.2943L10.2878 43.4307V43.433Z" fill="white"/>
<path d="M12.302 46.9462L10.9207 47.5744L10.0638 45.6896L11.4451 45.0614L11.2164 44.5579L7.99194 46.0246L8.22061 46.5281L9.60186 45.9021L10.4588 47.7869L9.07754 48.4152L9.30621 48.9187L12.5306 47.452L12.302 46.9485V46.9462Z" fill="white"/>
<path d="M10.3548 50.7366L11.9578 53.0764L12.3805 52.7877L11.0894 50.9029L11.9186 50.3347L13.0665 52.0116L13.4869 51.7228L12.3389 50.046L13.1682 49.4777L14.4293 51.3209L14.852 51.0322L13.2767 48.7317L10.3525 50.7343L10.3548 50.7366Z" fill="white"/>
<path d="M16.8244 55.3607L17.4804 54.5985L19.1596 56.049L19.4945 55.661L17.3949 53.8501L15.0782 56.5317L15.4986 56.8921L16.4895 55.7441L18.0163 57.0607L18.3489 56.6726L16.8221 55.3561L16.8244 55.3607Z" fill="white"/>
<path d="M18.2173 59.1695L18.7301 59.4767L21.2015 57.6889L20.7788 60.687L20.7742 60.7078L21.287 61.0173L21.8228 57.227L21.8275 57.2062L21.3378 56.9105L18.2173 59.1672V59.1695Z" fill="white"/>
<path d="M26.0567 59.2734C25.9019 59.1672 25.7195 59.0679 25.5093 58.9824C25.0265 58.7838 24.6362 58.7122 24.3475 58.763C24.0541 58.8161 23.837 59.0124 23.7007 59.3473C23.6314 59.5183 23.606 59.6753 23.6245 59.8116C23.643 59.9479 23.6961 60.0795 23.7816 60.202C23.8647 60.3221 23.9779 60.4376 24.1188 60.5461C24.2551 60.6524 24.4121 60.7632 24.5831 60.881C24.6824 60.9434 24.7863 61.0058 24.8995 61.0751C25.0104 61.1397 25.1097 61.2136 25.1951 61.2876C25.2783 61.3615 25.343 61.4446 25.3822 61.5324C25.4215 61.6178 25.4169 61.7172 25.3707 61.828C25.3083 61.9828 25.1951 62.0659 25.0242 62.0821C24.851 62.0983 24.6062 62.0428 24.3059 61.9204C24.1765 61.8673 24.0541 61.8096 23.9409 61.7472C23.8301 61.6871 23.7377 61.6155 23.6684 61.5347C23.5991 61.4562 23.5552 61.3638 23.539 61.2575C23.5229 61.1536 23.5437 61.0265 23.6014 60.8833L23.613 60.8533L23.1187 60.6524L23.1071 60.6824C23.024 60.888 22.9847 61.0774 22.9916 61.2483C22.9986 61.4192 23.0471 61.5763 23.1325 61.7149C23.218 61.8534 23.3427 61.9782 23.5021 62.089C23.6591 62.1976 23.8486 62.2969 24.0634 62.387C24.456 62.5487 24.7909 62.6295 25.0589 62.6295C25.1282 62.6295 25.1928 62.6249 25.2529 62.6134C25.5532 62.5602 25.7749 62.3616 25.9135 62.0244C25.9805 61.8581 26.0105 61.7033 25.9966 61.5624C25.9851 61.4215 25.9343 61.2876 25.8488 61.1628C25.7657 61.0404 25.6456 60.918 25.4954 60.7979C25.3453 60.6824 25.1674 60.5577 24.9642 60.4329C24.821 60.3475 24.6916 60.2643 24.5831 60.1881C24.4768 60.1119 24.3913 60.038 24.3313 59.9664C24.2712 59.8971 24.232 59.8255 24.2135 59.7585C24.1973 59.6938 24.2019 59.6245 24.232 59.5506C24.2597 59.4813 24.299 59.4259 24.3475 59.3843C24.396 59.3427 24.4606 59.3173 24.5369 59.3058C24.6177 59.2942 24.7193 59.3011 24.8348 59.3266C24.9549 59.352 25.0981 59.3982 25.2644 59.4674C25.3892 59.5183 25.5093 59.5737 25.6155 59.6338C25.7195 59.6915 25.8049 59.7585 25.8719 59.837C25.9366 59.9109 25.9759 60.001 25.992 60.1026C26.0059 60.2043 25.9851 60.329 25.9273 60.4699L25.9158 60.4999L26.4101 60.7009L26.4216 60.6708C26.5048 60.4653 26.5441 60.2759 26.5394 60.1073C26.5348 59.9363 26.4886 59.7816 26.4078 59.6453C26.3246 59.509 26.2045 59.3843 26.0498 59.2757L26.0567 59.2734Z" fill="white"/>
<path d="M27.9553 60.4861L29.1033 60.7425L28.4404 63.7013L28.9786 63.8237L29.6415 60.8649L30.7871 61.1236L30.9003 60.6247L28.0685 59.9895L27.9553 60.4884V60.4861Z" fill="white"/>
<path d="M32.0159 64.3042V64.3365L34.8477 64.5005L34.8754 63.9901L32.5956 63.8584L32.6534 62.8537L34.6837 62.9715L34.7137 62.461L32.6834 62.3432L32.7411 61.3408L34.9724 61.4678L35.0024 60.9597L32.2191 60.798L32.0159 64.3019V64.3042Z" fill="white"/>
<path d="M39.5272 62.7127C39.4487 62.5949 39.3401 62.5002 39.2062 62.4309C39.0722 62.3639 38.9105 62.3131 38.7211 62.2808C38.534 62.2507 38.3192 62.2276 38.0813 62.2138C37.9127 62.2068 37.7602 62.193 37.6309 62.1791C37.5015 62.1653 37.3907 62.1399 37.3029 62.1052C37.2174 62.0729 37.1481 62.029 37.0996 61.9782C37.0534 61.9297 37.0257 61.865 37.0165 61.7865C37.0073 61.7126 37.0165 61.6456 37.0396 61.5855C37.0627 61.5278 37.1066 61.4723 37.1689 61.4261C37.2336 61.3776 37.326 61.3361 37.4415 61.3037C37.5593 61.2691 37.7071 61.2414 37.8873 61.2229C38.0236 61.2067 38.1529 61.1998 38.2753 61.2021C38.3954 61.2021 38.504 61.2229 38.5987 61.2575C38.6911 61.2922 38.7696 61.3522 38.8297 61.4331C38.892 61.5162 38.9313 61.634 38.9475 61.7865L38.9521 61.8188L39.481 61.7611L39.4764 61.7287C39.451 61.507 39.3956 61.3222 39.3101 61.1767C39.2246 61.0289 39.1091 60.9157 38.9729 60.8325C38.8366 60.7517 38.6703 60.7009 38.4809 60.6778C38.2938 60.657 38.0859 60.657 37.8596 60.6824C37.3422 60.7401 36.9634 60.8602 36.7347 61.0427C36.5037 61.2298 36.4044 61.5047 36.4437 61.865C36.4645 62.0475 36.5176 62.1976 36.5984 62.3085C36.6816 62.4193 36.7901 62.5094 36.9218 62.5764C37.0534 62.6411 37.2082 62.6896 37.3814 62.7173C37.5547 62.745 37.7464 62.7681 37.9496 62.7889C38.0651 62.7958 38.1899 62.8028 38.3192 62.8074C38.4485 62.812 38.5687 62.8282 38.6818 62.8536C38.7927 62.879 38.8851 62.9206 38.9636 62.9806C39.0399 63.0384 39.0814 63.1238 39.0953 63.2462C39.1138 63.4125 39.0537 63.5396 38.9105 63.632C38.7627 63.729 38.5248 63.796 38.2014 63.8329C38.0628 63.8468 37.9265 63.856 37.7995 63.856C37.6748 63.856 37.5593 63.8352 37.46 63.7983C37.363 63.7636 37.2798 63.7013 37.2151 63.6181C37.1505 63.535 37.1089 63.4125 37.0927 63.2578L37.0881 63.2255L36.5592 63.2855L36.5638 63.3178C36.5892 63.5396 36.6446 63.7244 36.7324 63.8699C36.8202 64.0177 36.938 64.1309 37.0812 64.2117C37.2221 64.2926 37.393 64.3434 37.5847 64.3642C37.6702 64.3734 37.7602 64.378 37.8549 64.378C37.9704 64.378 38.0928 64.3711 38.2199 64.3572C38.7511 64.2972 39.1392 64.1725 39.3725 63.9877C39.6104 63.7983 39.7097 63.5165 39.6704 63.1539C39.6496 62.976 39.6011 62.8259 39.5226 62.7081V62.7127H39.5272Z" fill="white"/>
<path d="M43.3869 59.5621L40.592 60.3498L40.7306 60.8418L41.8624 60.523L42.6778 63.4102L42.687 63.4402L43.2206 63.2901L42.396 60.3729L43.5278 60.0541L43.3892 59.5621H43.3869Z" fill="white"/>
<path d="M50.903 58.6037C50.8198 58.4628 50.7112 58.3565 50.5819 58.2849C50.4526 58.2156 50.3047 58.1787 50.1407 58.1787C50.1246 58.1787 50.1061 58.1787 50.0899 58.1787C50.1407 58.0517 50.1592 57.9246 50.1454 57.793C50.1292 57.6544 50.0784 57.5135 49.9952 57.3726C49.9121 57.234 49.8151 57.1208 49.7088 57.0377C49.6002 56.9545 49.4755 56.9037 49.3369 56.8875C49.2007 56.8714 49.0459 56.8898 48.8796 56.9407C48.7133 56.9915 48.5262 57.0769 48.3229 57.1993L46.8054 58.1048L48.6209 61.1468L50.1939 60.2067C50.4225 60.0704 50.6073 59.9364 50.739 59.8094C50.8729 59.68 50.9676 59.5484 51.0208 59.4167C51.0739 59.2851 51.09 59.1488 51.067 59.0148C51.0439 58.8809 50.9884 58.7423 50.9053 58.6014L50.903 58.6037ZM49.4155 58.9086C49.5125 58.8508 49.6118 58.8046 49.7134 58.7677C49.8127 58.733 49.9098 58.7146 49.9998 58.7099C50.0899 58.7099 50.1708 58.7215 50.2424 58.7492C50.3093 58.7769 50.3648 58.8277 50.4087 58.897C50.4572 58.9802 50.4849 59.0587 50.4849 59.1349C50.4849 59.2088 50.4641 59.2828 50.4248 59.3497C50.3833 59.419 50.3209 59.4906 50.2401 59.5576C50.1569 59.6269 50.0576 59.6962 49.9398 59.7655L48.8334 60.4261L48.3183 59.5646L49.4155 58.9086ZM49.531 58.1279C49.4917 58.1949 49.4363 58.2572 49.3646 58.3173C49.2907 58.3773 49.2053 58.4374 49.1083 58.4951L48.0527 59.1257L47.5376 58.2642L48.6094 57.6243C48.7017 57.5689 48.7941 57.5273 48.8842 57.4973C48.972 57.4696 49.0551 57.4557 49.1314 57.458C49.2053 57.4603 49.2746 57.4788 49.3369 57.5135C49.3993 57.5481 49.4524 57.6012 49.494 57.6728C49.5471 57.7606 49.5748 57.8461 49.5795 57.92C49.5818 57.9939 49.5656 58.0655 49.5286 58.1302L49.531 58.1279Z" fill="white"/>
<path d="M53.811 55.7118C53.915 55.5616 53.9796 55.4115 54.005 55.2683C54.0305 55.1228 54.0189 54.9796 53.9704 54.841C53.9219 54.7047 53.8364 54.5661 53.7186 54.4322C53.6008 54.2982 53.4761 54.1966 53.3468 54.1319C53.2151 54.0672 53.0719 54.0372 52.9218 54.0464C52.7716 54.0557 52.6099 54.1042 52.4413 54.192C52.2727 54.2774 52.0902 54.4068 51.8985 54.5777L50.6836 55.6356L53.0118 58.3057L53.4299 57.9407L52.5383 56.9175L53.0742 56.4486L54.7973 56.7466L55.3147 56.2938L53.5777 55.9936C53.6724 55.8966 53.751 55.8019 53.8133 55.7118H53.811ZM53.4299 55.2544C53.4114 55.3353 53.3676 55.4231 53.2983 55.5155C53.229 55.6102 53.1273 55.7164 52.998 55.8296L52.1965 56.5271L51.432 55.6494L52.2335 54.9519C52.3628 54.8387 52.4806 54.7532 52.5845 54.6978C52.6862 54.6424 52.7786 54.61 52.8617 54.6008C52.9402 54.5915 53.0165 54.6054 53.0835 54.64C53.1527 54.6747 53.222 54.7278 53.2867 54.8017C53.3514 54.8756 53.3976 54.9519 53.4207 55.0258C53.4438 55.0974 53.4484 55.1759 53.4299 55.2544Z" fill="white"/>
<path d="M54.6724 51.709L56.4763 55.1113L56.8551 54.6447L55.4254 51.9492L58.3588 52.7876L58.7353 52.3234L55.035 51.2655L54.6747 51.709H54.6724Z" fill="white"/>
<path d="M56.9451 48.4891L56.6587 48.9626L59.6937 50.7897L59.9801 50.3162L56.9451 48.4891Z" fill="white"/>
<path d="M58.7423 44.8998L61.1376 45.9692L57.9547 46.7014L57.9385 46.706L57.7191 47.1957L60.9551 48.6393L61.1792 48.1358L58.7839 47.0663L61.9853 46.3318L62.2047 45.8422L58.9687 44.3986L58.7423 44.9021V44.8998Z" fill="white"/>
<path d="M62.6758 40.6867C62.5026 40.6428 62.3432 40.6382 62.207 40.6706C62.0707 40.7029 61.9436 40.7722 61.8328 40.8738C61.7219 40.9754 61.618 41.1117 61.5233 41.2757C61.4286 41.4397 61.3339 41.6337 61.2369 41.8532C61.1722 42.0079 61.1075 42.1465 61.0474 42.2643C60.9874 42.3798 60.9273 42.4745 60.865 42.5461C60.8049 42.6154 60.7403 42.6662 60.6756 42.6939C60.6132 42.7216 60.5439 42.7239 60.4677 42.7055C60.3961 42.687 60.336 42.657 60.2875 42.6154C60.2413 42.5738 60.2044 42.5138 60.1836 42.4398C60.1605 42.3613 60.1536 42.262 60.1605 42.1419C60.1697 42.0195 60.1951 41.8693 60.239 41.6961C60.2714 41.5644 60.3106 41.4397 60.3545 41.3265C60.3961 41.2157 60.4515 41.1187 60.5185 41.0424C60.5832 40.9662 60.6663 40.9154 60.7657 40.8854C60.865 40.8553 60.9897 40.86 61.1375 40.8969L61.1676 40.9038L61.2969 40.3865L61.2669 40.3795C61.0521 40.3264 60.8581 40.3149 60.6917 40.3449C60.5231 40.3749 60.3776 40.4419 60.2529 40.5412C60.1305 40.6428 60.0242 40.7791 59.9388 40.9477C59.8556 41.114 59.784 41.3127 59.7286 41.5321C59.6038 42.0379 59.5877 42.4352 59.6801 42.7124C59.7748 42.9942 60.0011 43.1813 60.3499 43.2667C60.5278 43.3106 60.6871 43.3129 60.8211 43.276C60.9551 43.2367 61.0752 43.1651 61.1837 43.0658C61.29 42.9665 61.3893 42.8371 61.4748 42.6824C61.5602 42.5299 61.648 42.3613 61.7404 42.1719C61.7866 42.0657 61.8351 41.9525 61.8859 41.8301C61.9344 41.7123 61.9922 41.6037 62.0545 41.5067C62.1169 41.412 62.1885 41.3381 62.2693 41.2873C62.3502 41.2365 62.4449 41.2272 62.5627 41.2572C62.7243 41.2988 62.8237 41.3981 62.8629 41.5621C62.9045 41.7331 62.8837 41.9802 62.8052 42.2966C62.7729 42.4329 62.7313 42.5623 62.6874 42.6824C62.6435 42.8002 62.5858 42.9018 62.5165 42.9826C62.4495 43.0612 62.364 43.1189 62.2624 43.1513C62.1608 43.1836 62.0337 43.1813 61.8813 43.142L61.8513 43.1351L61.7219 43.6525L61.7519 43.6594C61.8882 43.6917 62.0152 43.7102 62.133 43.7102C62.2023 43.7102 62.267 43.7033 62.3294 43.694C62.4957 43.664 62.6458 43.5924 62.7705 43.4862C62.893 43.3822 63.0015 43.239 63.087 43.0658C63.1724 42.8949 63.244 42.6939 63.2995 42.4676C63.4288 41.9479 63.4473 41.5413 63.3526 41.2572C63.2556 40.9685 63.0269 40.7768 62.6735 40.689V40.6937L62.6758 40.6867Z" fill="white"/>
<path d="M7.8556 36.3512C8.34296 36.3512 8.73793 35.9562 8.73793 35.4689C8.73793 34.9815 8.34296 34.5865 7.8556 34.5865C7.36824 34.5865 6.97327 34.9815 6.97327 35.4689C6.97327 35.9562 7.36824 36.3512 7.8556 36.3512Z" fill="#FF3C00"/>
<path d="M62.678 36.0094C63.1653 36.0094 63.5603 35.6144 63.5603 35.1271C63.5603 34.6397 63.1653 34.2448 62.678 34.2448C62.1906 34.2448 61.7957 34.6397 61.7957 35.1271C61.7957 35.6144 62.1906 36.0094 62.678 36.0094Z" fill="#FF3C00"/>
<path d="M21.2665 32.2143H27.3643V35.187H22.1234C21.6499 35.187 21.2642 34.8013 21.2642 34.3278V32.212L21.2665 32.2143Z" fill="#FF3C00"/>
<path d="M18.1575 29.2417H20.4234C20.8969 29.2417 21.2826 29.6274 21.2826 30.1009V32.2167H18.1575V29.244V29.2417Z" fill="#FF3C00"/>
<path d="M33.3903 39.5341L45.6067 39.4833C46.7131 39.4833 47.7132 39.3608 48.6094 39.1183C49.5056 38.8758 50.2678 38.5155 50.8961 38.0373C51.5243 37.5592 52.0071 36.9656 52.342 36.2519C52.6769 35.5405 52.8455 34.7067 52.8455 33.7504C52.8455 32.7942 52.6769 31.928 52.342 31.1981C52.0071 30.4682 51.5243 29.8584 50.8961 29.3641C50.2678 28.8699 49.5056 28.5003 48.6094 28.2578C47.7132 28.0152 46.7108 27.8928 45.6067 27.8928H31.6811C29.2928 27.8928 27.3572 29.8284 27.3572 32.2167H44.9045C46.1957 32.2167 46.8401 32.7272 46.8401 33.7504C46.8401 34.187 46.6807 34.5334 46.362 34.7944C46.0432 35.0554 45.5582 35.1848 44.9045 35.1848H27.3572V44.5371H33.3903V39.5341Z" fill="white"/>
</g>
<defs>
<clipPath id="clip0_326_1628">
<rect width="70" height="70" fill="white"/>
</clipPath>
</defs>
</svg>
