<svg width="15" height="15" viewBox="0 0 15 15" fill="none" xmlns="http://www.w3.org/2000/svg">
<path d="M12.2163 11.2213C12.3484 11.3534 12.4226 11.5325 12.4226 11.7193C12.4226 11.9062 12.3484 12.0853 12.2163 12.2174C12.0842 12.3495 11.9051 12.4237 11.7183 12.4237C11.5315 12.4237 11.3523 12.3495 11.2202 12.2174L7.5001 8.49611L3.77881 12.2162C3.64672 12.3483 3.46756 12.4225 3.28076 12.4225C3.09396 12.4225 2.9148 12.3483 2.78271 12.2162C2.65062 12.0841 2.57642 11.905 2.57642 11.7182C2.57642 11.5314 2.65062 11.3522 2.78271 11.2201L6.504 7.50001L2.78389 3.77872C2.6518 3.64663 2.57759 3.46748 2.57759 3.28068C2.57759 3.09387 2.6518 2.91472 2.78389 2.78263C2.91598 2.65054 3.09513 2.57633 3.28193 2.57633C3.46874 2.57633 3.64789 2.65054 3.77998 2.78263L7.5001 6.50392L11.2214 2.78204C11.3535 2.64995 11.5326 2.57574 11.7194 2.57574C11.9062 2.57574 12.0854 2.64995 12.2175 2.78204C12.3496 2.91413 12.4238 3.09329 12.4238 3.28009C12.4238 3.46689 12.3496 3.64605 12.2175 3.77814L8.49619 7.50001L12.2163 11.2213Z" fill="#FF3C00"/>
</svg>
